<svg width="227" height="72" viewBox="0 0 227 72" fill="none" xmlns="http://www.w3.org/2000/svg">
<g id="horiz">
<path id="Vector" fill-rule="evenodd" clip-rule="evenodd" d="M70.847 16.6839H60.3197C59.128 16.6839 58.1606 15.7147 58.1606 14.5213V3.97469C58.1606 1.8156 56.4134 0.0648428 54.2578 0.0648428L38.6938 0C42.7508 2.59021 45.4409 6.00234 47.2828 9.60023C49.2544 13.0351 51.1138 19.2215 51.0945 22.8054C51.0752 26.391 52.649 27.6616 54.6346 29.9153C56.6202 32.169 57.1845 32.9366 57.6682 33.4711C58.1518 34.0039 58.5812 35.0764 55.6458 37.027C52.7103 38.9775 54.6346 40.5828 54.6346 40.5828C54.6346 40.5828 55.9262 41.8358 54.5452 42.8891C53.1642 43.9424 53.3675 43.7286 53.3465 43.9809C53.3254 44.2333 53.6427 44.4997 54.2315 45.1463C54.8203 45.7948 54.9921 46.4905 54.2035 47.2476C53.4131 48.0047 53.0924 48.8336 53.0836 50.0236C53.0748 51.2135 53.5235 52.3842 53.4359 54.1349C53.3482 55.8857 51.8183 56.6305 48.485 56.8478C45.1535 57.0651 39.9854 56.3273 37.0569 60.132C34.521 63.3146 34.0987 68.2864 32.9929 70.1739C32.5162 70.9871 32.0044 71.5706 31.4717 72L54.2595 71.9685C56.4151 71.9685 58.1624 70.2177 58.1624 68.0586V58.2603C58.1624 57.0651 59.1298 56.0978 60.3215 56.0978H70.8488C73.0043 56.0978 74.7516 54.347 74.7516 52.1879V20.5937C74.7516 18.4346 73.0043 16.6839 70.8488 16.6839H70.847Z" fill="white" style="fill:white;fill-opacity:1;"/>
<path id="brain" d="M47.0723 21.1643C47.0303 21.152 46.983 21.1327 46.9391 21.1345C46.9234 20.9136 46.9146 20.6928 46.8866 20.4738C46.8533 20.2056 46.8182 19.9392 46.7779 19.6729C46.6219 18.6459 46.331 17.1247 45.8263 15.7034C44.8624 12.9906 43.1169 10.6299 43.0889 10.5914C43.1047 10.4862 43.1134 10.3863 43.1134 10.2899C43.1134 9.72739 42.9627 9.13855 42.4527 8.6829C41.9428 8.22725 41.1068 8.21673 41.1068 8.21673C41.1068 8.21673 40.341 7.1144 40.1675 6.89184C39.5173 6.05414 38.7549 5.21819 37.898 4.40503C36.2015 2.79623 34.0652 1.55019 34.0652 1.55019C33.8164 0.822902 33.2188 0.267358 32.4617 0.0763344C32.4617 0.0763344 32.2286 0.000976562 31.9079 0.000976562C31.7274 0.000976562 20.5061 0.00798659 20.5061 0.00798659C18.3487 0.00798659 16.5997 1.76049 16.5997 3.92309V14.4819C16.5997 15.6789 15.6324 16.648 14.4389 16.648H3.90634C1.749 16.648 0 18.4005 0 20.5631V31.6092C0.0963879 32.2944 0.660695 32.8044 1.28809 33.3214C1.91549 33.8384 2.56217 34.2572 3.73109 34.6182C4.10087 34.7357 4.45312 34.8163 4.77383 34.8566C5.34865 34.9302 5.88842 34.9723 6.38088 34.9828C6.41242 35.172 6.47026 35.3596 6.54737 35.5173C6.86457 36.1605 7.52702 36.5758 8.23854 36.5758C8.25431 36.5758 8.27183 36.5758 8.28761 36.574L9.50385 39.832C8.97985 40.2298 8.6714 40.8449 8.6714 41.4986C8.6714 41.9192 8.79408 42.324 9.02892 42.671C9.41797 43.2511 10.0664 43.5963 10.7604 43.5963C11.3177 43.5963 11.8434 43.3773 12.2378 42.9812C12.6321 42.5851 12.8494 42.0576 12.8494 41.4968C12.8494 41.3777 12.8371 41.2567 12.8143 41.1306C13.0755 40.9273 14.2163 40.0423 19.2092 36.164C19.6053 36.6669 20.2064 36.9631 20.8496 36.9631C21.2579 36.9631 21.7504 36.8334 22.0588 36.4812C22.2516 36.6599 24.4913 37.403 27.2147 37.0315C29.9381 36.6599 31.0194 35.5646 31.0492 35.5699C31.086 35.5821 31.1806 35.6733 31.2332 35.7223C31.2963 35.7837 31.3559 35.8397 31.4119 35.8748C32.169 36.341 33.196 36.2498 33.8637 35.6645C34.0144 35.5331 34.3772 35.0231 34.4035 35.002C34.4543 34.9635 36.3838 34.988 38.2274 34.1696C40.0711 33.3512 41.1822 32.5047 41.261 32.4451C41.6816 32.6607 42.6928 32.8324 43.5235 32.2366C44.3542 31.6407 44.3016 30.6663 44.3016 30.6663C44.4436 30.5174 45.3707 29.5973 46.1102 28.1112C46.3433 27.6766 46.5326 27.2174 46.7026 26.7548C46.8235 26.4288 47.1775 25.0794 47.1792 25.0706C47.1898 25.004 48.3341 24.6833 48.4954 23.6265C48.6093 22.7678 48.4516 22.3314 48.1659 21.9564C47.8802 21.5813 47.5122 21.2939 47.0741 21.166L47.0723 21.1643ZM33.8847 3.42713C34.5489 3.84598 35.6828 4.61533 36.6765 5.55467C37.9453 6.75339 39.0301 8.20096 39.5015 8.86341C39.2334 9.15432 39.0564 9.50307 38.981 9.88512L31.4873 13.5005C31.2437 13.3744 30.9913 13.299 30.7337 13.2762L32.1778 4.57152C32.8911 4.48564 33.5272 4.05978 33.8847 3.42713ZM25.6935 23.1796L29.4947 17.1755C29.6139 17.2456 29.74 17.3035 29.8732 17.349L31.8027 25.6612C31.4347 25.8855 31.1438 26.2185 30.9721 26.6145L26.037 24.4888C26.044 24.4379 26.0475 24.3854 26.0475 24.331C26.0475 23.9209 25.9248 23.5249 25.6935 23.1779V23.1796ZM18.5468 14.4819V10.7246L19.94 11.4256C19.9313 11.5079 19.926 11.5815 19.926 11.6551C19.926 12.8065 20.79 13.7827 21.9151 13.9282L22.9491 22.5014C22.7984 22.5838 22.6617 22.6819 22.5407 22.7923L16.9783 17.7083C17.9317 16.9547 18.5468 15.7893 18.5468 14.4819ZM22.9088 9.46977L22.6845 3.59537C23.2996 3.27816 23.6939 2.64726 23.7114 1.95327H29.6542C29.6366 2.06543 29.6261 2.17934 29.6261 2.29501C29.6261 2.73664 29.7506 3.1625 29.9907 3.53403L23.4783 9.75368C23.2978 9.631 23.1068 9.53637 22.9105 9.47153L22.9088 9.46977ZM24.493 11.6534C24.493 11.4098 24.4527 11.1662 24.3721 10.9279L30.6303 4.95181L29.1617 13.8072C28.7148 14.2086 28.459 14.7729 28.459 15.3652C28.459 15.5457 28.487 15.7315 28.5448 15.933L24.5036 22.3156C24.4668 22.3051 24.4317 22.2964 24.3967 22.2876L23.3539 13.6355C24.0584 13.2254 24.4913 12.4736 24.4913 11.6516L24.493 11.6534ZM19.9383 2.03739C19.9926 2.79973 20.4991 3.46043 21.2246 3.70402L21.4472 9.4908C21.144 9.59946 20.8636 9.77646 20.627 10.0095L18.5485 8.96505V3.92133C18.5485 3.03457 19.1356 2.28274 19.94 2.03739H19.9383ZM11.7558 18.5933H13.2262L15.5079 26.0467C15.3712 26.1309 15.2451 26.2272 15.1311 26.3377L10.8988 24.3223C10.8533 23.8175 10.6447 23.3461 10.3012 22.9746L11.7541 18.5916L11.7558 18.5933ZM3.90634 18.5933H6.06017L7.60588 22.4769C7.24136 22.6609 6.92941 22.9466 6.70509 23.2971L1.94704 20.6192V20.5631C1.94704 19.4766 2.82679 18.5933 3.90809 18.5933H3.90634ZM6.57891 25.5315L1.94528 28.8315V22.3051L6.35634 24.7884C6.38614 25.0426 6.45974 25.2914 6.57891 25.5315ZM7.76361 32.6239C7.27641 32.7396 6.84004 33.034 6.54386 33.4511C5.95327 33.3915 5.16464 33.2951 4.58806 33.1584C3.73284 32.9551 2.79174 32.4066 1.94704 31.6302V30.6348L7.63392 26.5865C7.7566 26.6461 7.88628 26.6952 8.02122 26.7337L7.76711 32.6256L7.76361 32.6239ZM7.63567 18.5933H10.2119L9.04118 22.1246L7.63567 18.5933ZM10.7464 38.9697L9.70013 36.1622C10.1015 35.7661 10.3293 35.2264 10.3293 34.6673C10.3293 33.8962 9.89816 33.1812 9.22169 32.8167L9.48807 26.6531C9.91568 26.4779 10.2837 26.1729 10.5396 25.7804L14.5073 27.6696C14.5002 27.7256 14.495 27.7817 14.495 27.8396C14.495 28.3916 14.7176 28.9244 15.1119 29.3187L10.7481 38.9697H10.7464ZM18.7781 34.641L12.0572 39.86C12.031 39.839 12.0047 39.8179 11.9801 39.7987L16.4438 29.9285C16.4806 29.9338 16.5174 29.9373 16.5542 29.9373L19.0392 33.8226C18.899 34.0697 18.8097 34.3484 18.7781 34.6393V34.641ZM20.6393 32.7834C20.4886 32.7991 20.3343 32.8359 20.1801 32.8885L17.9562 29.4116C18.4118 29.0102 18.6712 28.4459 18.6712 27.8396C18.6712 26.8284 17.9387 25.9609 16.9538 25.7821L14.7473 18.5758C15.0365 18.5548 15.3169 18.5039 15.5868 18.4251L21.873 24.1698C21.866 24.2224 21.859 24.2767 21.859 24.3328C21.859 25.0566 22.2358 25.7243 22.8509 26.1081L20.6375 32.7834H20.6393ZM31.8693 32.0859C31.0281 32.3505 30.441 33.1146 30.4042 34.0014C30.0555 34.2257 28.2855 35.321 26.5242 35.4892C25.1204 35.6224 23.7114 35.2088 22.9333 34.9197C22.9333 34.9022 22.9351 34.8829 22.9351 34.8654C22.9351 34.1836 22.6091 33.5545 22.0553 33.1584L24.295 26.4025C24.7191 26.3306 25.1117 26.1256 25.4219 25.8172L30.93 28.1901C31.1543 28.7929 31.6345 29.2556 32.2409 29.4519L31.8676 32.0841L31.8693 32.0859ZM33.2433 25.3931L31.3629 17.2895C32.1305 16.9617 32.6369 16.2047 32.6369 15.3652C32.6369 15.1199 32.5931 14.8763 32.5055 14.6414L39.2491 11.3888C39.2614 11.408 39.2719 11.4256 39.2842 11.4431L36.5258 17.6067C35.6723 17.8047 35.0607 18.5723 35.0607 19.4591C35.0607 19.7184 35.1167 19.9761 35.2271 20.2249L33.2661 25.3983C33.2661 25.3983 33.2521 25.3948 33.2451 25.3931H33.2433ZM40.185 31.129C39.6838 31.5023 38.7567 32.1314 37.6544 32.5888C36.4364 33.0936 35.0081 33.1584 34.3614 33.1602C34.1441 32.7203 33.7796 32.368 33.3379 32.17L33.7358 29.373C34.4893 29.033 34.9713 28.2899 34.9713 27.4558C34.9713 26.9966 34.8171 26.5462 34.5349 26.1799L36.3943 21.2764C36.6256 21.35 36.8675 21.3763 37.1041 21.3588L40.5898 29.2433C40.2761 29.6219 40.1061 30.0915 40.1061 30.577C40.1061 30.754 40.1324 30.9362 40.1885 31.1308L40.185 31.129ZM44.7205 27.1035C44.3612 27.8273 43.8477 28.5371 43.52 28.9594C43.145 28.6475 42.6788 28.4757 42.1899 28.4757C42.083 28.4757 41.9743 28.4845 41.8621 28.5038L38.3992 20.6718C38.4483 20.614 38.4921 20.5526 38.5324 20.4913L44.3787 23.0096C44.3735 23.0587 44.3682 23.1078 44.3682 23.1586C44.3682 23.9262 44.7958 24.6377 45.4688 25.0022C45.3672 25.4228 45.1306 26.2763 44.7205 27.1V27.1035ZM44.9921 21.6742L38.7882 19.0017C38.6743 18.546 38.3957 18.1482 38.0066 17.8853L40.4987 12.3193C41.0017 12.4595 41.452 12.4052 41.8937 12.1967C42.3634 12.7855 43.6076 14.4451 44.3647 16.3466C45.1411 18.2971 45.4267 20.5141 45.5074 21.2957C45.3181 21.3956 45.1463 21.5218 44.9939 21.6742H44.9921Z" fill="white" style="fill:white;fill-opacity:1;"/>
<g id="typo">
<path id="Vector_2" d="M186.908 22.3916C186.17 22.3916 185.534 22.1235 184.996 21.5855C184.458 21.0475 184.189 20.4113 184.189 19.6735C184.189 18.9357 184.458 18.2662 184.996 17.73C185.534 17.192 186.17 16.9238 186.908 16.9238C187.645 16.9238 188.315 17.192 188.851 17.73C189.389 18.268 189.657 18.9147 189.657 19.6735C189.657 20.4323 189.389 21.0492 188.851 21.5855C188.313 22.1235 187.666 22.3916 186.908 22.3916ZM184.442 39.8379V24.5087H189.403V39.8379H184.442Z" fill="white" style="fill:white;fill-opacity:1;"/>
<path id="Vector_3" d="M197.654 39.8366H192.692V24.5075H195.758L196.611 26.1198C197.538 25.4871 198.544 24.9771 199.629 24.5863C200.714 24.1973 201.741 24.001 202.71 24.001C204.606 24.001 205.982 24.5443 206.833 25.6291C207.687 26.7139 208.113 28.1947 208.113 30.0699V39.8366H203.151V30.4502C203.151 29.7124 202.994 29.1288 202.676 28.6959C202.361 28.2648 201.886 28.0475 201.253 28.0475C200.368 28.0475 199.168 28.4891 197.65 29.3742V39.8349L197.654 39.8366Z" fill="white" style="fill:white;fill-opacity:1;"/>
<path id="Vector_4" d="M211.594 39.8371V18.4723L216.524 17.5225V29.5008L222.687 24.0646L225.563 27.51L221.39 30.9239L226.763 39.8371H221.327L217.882 33.7367L216.524 34.874V39.8354H211.594V39.8371Z" fill="white" style="fill:white;fill-opacity:1;"/>
<path id="Vector_5" d="M161.524 24.8568L162.409 28.7123H158.11V33.8332C158.11 34.5499 158.289 35.1283 158.648 35.5717C159.006 36.015 159.502 36.2359 160.135 36.2359C160.767 36.2359 161.44 36.0676 162.094 35.7294L163.517 39.1748C163.158 39.471 162.611 39.7339 161.873 39.9652C161.135 40.1965 160.45 40.3122 159.819 40.3122C157.881 40.3122 156.29 39.8057 155.047 38.7945C153.803 37.7833 153.182 36.3498 153.182 34.4956V28.7123H150.971V24.8568H153.182V20.9698L158.112 20.2109V24.8568H161.526H161.524Z" fill="white" style="fill:white;fill-opacity:1;"/>
<path id="Vector_6" d="M175.847 24.0032C175.046 24.0032 174.208 24.1399 173.334 24.4133C172.459 24.6867 171.611 25.046 170.789 25.4876V17.5225L165.859 18.4723V39.8371H170.789V29.3764C172.307 28.4914 173.507 28.0498 174.392 28.0498C175.025 28.0498 175.503 28.2653 175.831 28.6982C176.157 29.1311 176.322 29.7147 176.322 30.4525V39.8389H181.252V30.0722C181.252 26.0274 179.45 24.0032 175.847 24.0032Z" fill="white" style="fill:white;fill-opacity:1;"/>
<path id="Vector_7" d="M101.335 39.8373V31.0818H93.338V39.8373H88.4082V18.3445L93.338 18.1553V27.1632H101.335V18.3445H106.264V39.8373H101.335Z" fill="white" style="fill:white;fill-opacity:1;"/>
<path id="Vector_8" d="M123.805 33.5154H113.975C114.438 35.3065 115.788 36.202 118.02 36.202C119.475 36.202 120.917 35.8025 122.351 35.0016L123.742 38.447C123.025 38.9745 122.146 39.3951 121.103 39.7106C120.06 40.026 118.916 40.1855 117.673 40.1855C114.871 40.1855 112.663 39.4792 111.052 38.0685C109.44 36.6577 108.634 34.6966 108.634 32.1905C108.634 30.5467 108.97 29.1096 109.645 27.8759C110.32 26.6439 111.263 25.6958 112.474 25.0316C113.685 24.3674 115.071 24.0361 116.63 24.0361C118.19 24.0361 119.506 24.3954 120.581 25.1104C121.655 25.8272 122.461 26.7858 122.999 27.9863C123.537 29.1867 123.805 30.5362 123.805 32.0311V33.5172V33.5154ZM113.912 30.7027H119.096C118.97 29.9228 118.69 29.2954 118.259 28.8222C117.826 28.3473 117.242 28.1107 116.504 28.1107C115.809 28.1107 115.225 28.3473 114.75 28.8222C114.277 29.2972 113.996 29.9228 113.912 30.7027Z" fill="white" style="fill:white;fill-opacity:1;"/>
<path id="Vector_9" d="M127.881 29.2498L126.447 25.4574C127.197 25.0789 128.233 24.7459 129.553 24.462C130.872 24.1781 132.055 24.0361 133.103 24.0361C134.491 24.0361 135.72 24.2885 136.79 24.795C137.859 25.3014 138.685 26.0112 139.265 26.9278C139.845 27.8443 140.136 28.8923 140.136 30.0718V39.8385H137.165L135.902 38.2262C134.673 39.5336 133.319 40.1855 131.84 40.1855C129.836 40.1855 128.324 39.7281 127.301 38.8098C126.277 37.8932 125.764 36.6454 125.764 35.0647C125.764 33.4839 126.331 32.336 127.471 31.5561C128.608 30.7763 130.168 30.3872 132.146 30.3872H134.74C134.694 29.7125 134.461 29.192 134.041 28.8222C133.62 28.4542 133.056 28.2684 132.351 28.2684C131.691 28.2684 130.941 28.3631 130.098 28.5523C129.255 28.7416 128.515 28.9747 127.879 29.2481L127.881 29.2498ZM130.269 35.0331C130.269 35.4117 130.417 35.7394 130.713 36.0128C131.009 36.2862 131.396 36.4229 131.873 36.4229C132.874 36.4229 133.841 36.0233 134.775 35.2224V33.3577H132.181C131.612 33.3577 131.151 33.5154 130.799 33.8309C130.446 34.1463 130.269 34.5477 130.269 35.0314V35.0331Z" fill="white" style="fill:white;fill-opacity:1;"/>
<path id="Vector_10" d="M143.733 39.8371V18.1709L148.663 17.5225V39.8354H143.733V39.8371Z" fill="white" style="fill:white;fill-opacity:1;"/>
</g>
<g id="Group">
<path id="Vector_11" d="M88.377 48.2812H89.297V55.9923H88.377V48.2812Z" fill="white" style="fill:white;fill-opacity:1;"/>
<path id="Vector_12" d="M91.4746 48.168H91.8672L96.6813 54.1843L96.839 54.4647L96.8285 54.151L96.818 48.2696H97.7276V55.9912H97.2561L96.6059 55.3515L92.7785 50.7494L92.3403 50.1658L92.3964 50.9071V55.9912H91.4764V48.168H91.4746Z" fill="white" style="fill:white;fill-opacity:1;"/>
<path id="Vector_13" d="M101.734 49.1347H99.1855V48.2812H105.202V49.1347H102.654V55.9923H101.734V49.1347Z" fill="white" style="fill:white;fill-opacity:1;"/>
<path id="Vector_14" d="M106.658 48.2812H111.686V49.1347H107.555V51.4813H110.598V52.3348H107.555V55.1406H111.898V55.994H106.656V48.283L106.658 48.2812Z" fill="white" style="fill:white;fill-opacity:1;"/>
<path id="Vector_15" d="M119.775 52.848C119.775 53.4772 119.623 54.038 119.321 54.5322C119.018 55.0264 118.613 55.4119 118.108 55.6888C117.604 55.9657 117.062 56.1042 116.487 56.1042C115.702 56.1042 115.028 55.9307 114.467 55.5819C113.906 55.2332 113.48 54.7688 113.193 54.1852C112.905 53.6016 112.76 52.9584 112.76 52.2557C112.76 51.5073 112.925 50.8221 113.254 50.2017C113.583 49.5813 114.043 49.0906 114.635 48.7314C115.226 48.3721 115.899 48.1934 116.656 48.1934C117.074 48.1934 117.492 48.2722 117.907 48.4282C118.322 48.5859 118.66 48.8102 118.923 49.1012C119.184 49.3938 119.309 49.7303 119.293 50.1106L118.452 50.1211C118.452 49.8898 118.359 49.6935 118.172 49.5323C117.984 49.371 117.751 49.2501 117.471 49.1678C117.19 49.0854 116.911 49.0451 116.635 49.0451C116.088 49.0451 115.588 49.194 115.136 49.4937C114.684 49.7934 114.328 50.1895 114.071 50.6837C113.813 51.1779 113.683 51.7054 113.683 52.2662C113.683 52.827 113.787 53.3002 113.992 53.7541C114.197 54.2062 114.512 54.569 114.935 54.8424C115.357 55.1158 115.883 55.2525 116.512 55.2525C116.908 55.2525 117.29 55.1508 117.656 54.9493C118.023 54.7477 118.32 54.4708 118.548 54.1186C118.776 53.7663 118.89 53.386 118.89 52.9742V52.7604H116.242V51.9069H119.777V52.8498L119.775 52.848Z" fill="white" style="fill:white;fill-opacity:1;"/>
<path id="Vector_16" d="M127.161 55.8678C127.026 56.0168 126.809 56.0922 126.511 56.0922C126.122 56.0922 125.808 55.9344 125.568 55.6208L124.266 53.8367C124.124 53.6492 123.998 53.5002 123.889 53.3881C123.781 53.2759 123.635 53.1813 123.451 53.1024C123.267 53.0235 123.041 52.9815 122.773 52.9727V52.1087H123.851C124.293 52.1087 124.64 51.979 124.895 51.7214C125.15 51.4638 125.277 51.1098 125.277 50.6612C125.277 50.2125 125.155 49.8462 124.913 49.5606C124.669 49.2767 124.357 49.1347 123.975 49.1347H122.36V55.9923H121.439V48.2812H124.021C124.426 48.2812 124.794 48.3864 125.127 48.5949C125.46 48.8052 125.721 49.0839 125.912 49.4309C126.103 49.7779 126.198 50.1512 126.198 50.5472C126.198 51.0257 126.07 51.4568 125.815 51.8388C125.561 52.2209 125.251 52.4645 124.883 52.5679C124.704 52.6205 124.405 52.6467 123.986 52.6467C124.203 52.7063 124.363 52.7694 124.463 52.8325C124.564 52.8956 124.675 53.0025 124.794 53.1532L125.209 53.714C125.793 54.4991 126.122 54.9408 126.198 55.0389C126.264 55.1213 126.322 55.1791 126.371 55.2124C126.42 55.2457 126.471 55.2632 126.522 55.2632C126.611 55.2632 126.69 55.2299 126.757 55.1616L127.161 55.8678Z" fill="white" style="fill:white;fill-opacity:1;"/>
<path id="Vector_17" d="M130.756 48.0684H131.126L134.437 55.9914H133.461L132.406 53.5116H129.477L128.445 55.9914H127.469L130.756 48.0684ZM131.093 50.28L131.004 49.9874L130.937 49.7297L130.858 49.9768L130.769 50.28L129.826 52.681H132.048L131.095 50.28H131.093Z" fill="white" style="fill:white;fill-opacity:1;"/>
<path id="Vector_18" d="M140.714 48.807C141.257 49.1505 141.678 49.6131 141.975 50.1932C142.275 50.7733 142.424 51.4217 142.424 52.1403C142.424 52.9044 142.258 53.5843 141.925 54.1837C141.592 54.783 141.129 55.2492 140.538 55.5857C139.948 55.9222 139.273 56.0904 138.518 56.0904H137.564C137.363 56.0904 137.004 56.0676 136.487 56.0238L135.857 55.9677V48.2129L138.854 48.2234C139.55 48.269 140.169 48.4635 140.712 48.807H140.714ZM140.64 54.4518C141.217 53.9208 141.504 53.162 141.504 52.1736C141.504 51.2465 141.259 50.5087 140.77 49.9619C140.279 49.4151 139.601 49.1207 138.733 49.0751H136.781V55.1914C137.289 55.2282 137.75 55.2475 138.162 55.2475C139.24 55.2475 140.065 54.9828 140.642 54.4501L140.64 54.4518Z" fill="white" style="fill:white;fill-opacity:1;"/>
<path id="Vector_19" d="M145.53 55.7035C144.943 55.3635 144.482 54.8991 144.149 54.312C143.816 53.725 143.649 53.0608 143.649 52.3194V51.9935C143.649 51.282 143.819 50.63 144.159 50.0342C144.499 49.4401 144.964 48.9687 145.551 48.6199C146.138 48.2712 146.779 48.0977 147.475 48.0977C148.171 48.0977 148.823 48.2712 149.405 48.6199C149.988 48.9687 150.453 49.4401 150.796 50.0342C151.14 50.6283 151.313 51.282 151.313 51.9935V52.3194C151.313 53.0608 151.147 53.7302 150.814 54.3278C150.481 54.9272 150.027 55.3933 149.45 55.7298C148.874 56.0663 148.23 56.231 147.519 56.224C146.778 56.217 146.113 56.0418 145.526 55.7018L145.53 55.7035ZM148.97 54.9745C149.412 54.7099 149.759 54.3436 150.015 53.8809C150.269 53.4165 150.397 52.8978 150.397 52.3212V51.9952C150.397 51.4484 150.265 50.942 150.004 50.4741C149.743 50.0061 149.389 49.6364 148.944 49.363C148.499 49.0896 148.006 48.9529 147.468 48.9529C146.93 48.9529 146.45 49.0896 146.008 49.363C145.567 49.6364 145.218 50.0061 144.959 50.4741C144.701 50.942 144.571 51.4484 144.571 51.9952V52.3212C144.571 52.8978 144.697 53.4183 144.953 53.8809C145.207 54.3453 145.558 54.7099 146.003 54.9745C146.448 55.2409 146.944 55.3723 147.491 55.3723C148.038 55.3723 148.53 55.2391 148.972 54.9745H148.97Z" fill="white" style="fill:white;fill-opacity:1;"/>
<path id="Vector_20" d="M158.753 55.8678C158.618 56.0168 158.401 56.0922 158.103 56.0922C157.714 56.0922 157.4 55.9344 157.16 55.6208L155.858 53.8367C155.716 53.6492 155.59 53.5002 155.481 53.3881C155.373 53.2759 155.227 53.1813 155.043 53.1024C154.859 53.0235 154.633 52.9815 154.365 52.9727V52.1087H155.443C155.884 52.1087 156.231 51.979 156.487 51.7214C156.741 51.4638 156.869 51.1098 156.869 50.6612C156.869 50.2125 156.747 49.8462 156.505 49.5606C156.261 49.2767 155.949 49.1347 155.567 49.1347H153.951V55.9923H153.031V48.2812H155.613C156.018 48.2812 156.386 48.3864 156.719 48.5949C157.052 48.8052 157.313 49.0839 157.504 49.4309C157.695 49.7796 157.789 50.1512 157.789 50.5472C157.789 51.0257 157.661 51.4568 157.407 51.8388C157.153 52.2209 156.843 52.4645 156.475 52.5679C156.296 52.6205 155.996 52.6467 155.578 52.6467C155.795 52.7063 155.954 52.7694 156.054 52.8325C156.156 52.8956 156.266 53.0025 156.386 53.1532L156.801 53.714C157.384 54.4991 157.714 54.9408 157.789 55.0389C157.856 55.1213 157.914 55.1791 157.963 55.2124C158.012 55.2457 158.063 55.2632 158.114 55.2632C158.203 55.2632 158.282 55.2299 158.348 55.1616L158.753 55.8678Z" fill="white" style="fill:white;fill-opacity:1;"/>
<path id="Vector_21" d="M162.344 48.0684H162.714L166.025 55.9914H165.048L163.993 53.5116H161.065L160.033 55.9914H159.057L162.344 48.0684ZM162.681 50.28L162.591 49.9874L162.525 49.7297L162.446 49.9768L162.357 50.28L161.414 52.681H163.636L162.683 50.28H162.681Z" fill="white" style="fill:white;fill-opacity:1;"/>
<path id="Vector_22" d="M175.562 48.807C176.106 49.1505 176.526 49.6131 176.824 50.1932C177.124 50.7733 177.273 51.4217 177.273 52.1403C177.273 52.9044 177.106 53.5843 176.773 54.1837C176.44 54.783 175.978 55.2492 175.387 55.5857C174.796 55.9222 174.122 56.0904 173.366 56.0904H172.413C172.211 56.0904 171.852 56.0676 171.335 56.0238L170.706 55.9677V48.2129L173.703 48.2234C174.399 48.269 175.017 48.4635 175.561 48.807H175.562ZM175.489 54.4518C176.065 53.9208 176.353 53.162 176.353 52.1736C176.353 51.2465 176.107 50.5087 175.618 49.9619C175.128 49.4151 174.449 49.1207 173.582 49.0751H171.63V55.1914C172.138 55.2282 172.599 55.2475 173.011 55.2475C174.088 55.2475 174.914 54.9828 175.49 54.4501L175.489 54.4518Z" fill="white" style="fill:white;fill-opacity:1;"/>
<path id="Vector_23" d="M178.957 48.2812H183.985V49.1347H179.854V51.4813H182.895V52.3348H179.854V55.1406H184.197V55.994H178.955V48.283L178.957 48.2812Z" fill="white" style="fill:white;fill-opacity:1;"/>
<path id="Vector_24" d="M189.844 55.9552C189.448 55.7835 189.113 55.5434 188.839 55.2367C188.566 54.93 188.389 54.583 188.307 54.1922L189.137 53.8435C189.256 54.3149 189.507 54.6847 189.889 54.9546C190.271 55.2245 190.678 55.3594 191.112 55.3594C191.577 55.3594 191.969 55.2157 192.29 54.9265C192.611 54.6391 192.772 54.2623 192.772 53.7979C192.772 53.4772 192.679 53.2108 192.492 53.0005C192.304 52.792 191.975 52.5747 191.503 52.3503C190.904 52.0577 190.45 51.8211 190.14 51.6371C189.83 51.4531 189.57 51.2252 189.365 50.9518C189.16 50.6784 189.057 50.3507 189.057 49.9704C189.057 49.5901 189.157 49.2764 189.355 48.989C189.553 48.7016 189.819 48.4773 190.152 48.3161C190.485 48.1548 190.843 48.0742 191.225 48.0742C191.545 48.0742 191.847 48.1391 192.129 48.2705C192.409 48.4019 192.634 48.5754 192.802 48.7927C192.97 49.0101 193.054 49.2414 193.054 49.4885C193.054 49.5253 193.047 49.5901 193.031 49.6795L192.155 49.6234C192.185 49.5043 192.153 49.3904 192.061 49.2817C191.968 49.173 191.838 49.0872 191.673 49.0241C191.508 48.961 191.351 48.9294 191.202 48.9294C190.872 48.9294 190.587 49.0293 190.343 49.2274C190.099 49.4254 189.979 49.6637 189.979 49.9406C189.979 50.165 190.059 50.3665 190.22 50.547C190.382 50.7258 190.569 50.8817 190.786 51.0132C191.004 51.1446 191.284 51.2953 191.628 51.4671L192.032 51.6686C192.623 51.9911 193.049 52.3118 193.307 52.6342C193.564 52.9567 193.694 53.3493 193.694 53.8119C193.694 54.2746 193.576 54.6917 193.34 55.058C193.103 55.4242 192.788 55.7081 192.392 55.9114C191.996 56.113 191.568 56.2146 191.112 56.2146C190.657 56.2146 190.241 56.1287 189.844 55.957V55.9552Z" fill="white" style="fill:white;fill-opacity:1;"/>
<path id="Vector_25" d="M197.588 48.0684H197.958L201.269 55.9914H200.293L199.238 53.5116H196.309L195.277 55.9914H194.301L197.588 48.0684ZM197.927 50.28L197.837 49.9874L197.771 49.7297L197.692 49.9768L197.603 50.28L196.66 52.681H198.882L197.928 50.28H197.927Z" fill="white" style="fill:white;fill-opacity:1;"/>
<path id="Vector_26" d="M203.504 55.6811C203.048 55.4077 202.696 55.0327 202.449 54.5525C202.202 54.0741 202.079 53.5378 202.079 52.9472V48.2785H202.999V52.9472C202.999 53.4116 203.089 53.8182 203.269 54.1705C203.448 54.5227 203.697 54.7926 204.016 54.9836C204.335 55.1747 204.703 55.2693 205.121 55.2693C205.765 55.2693 206.28 55.0555 206.665 54.6296C207.051 54.2038 207.244 53.6412 207.244 52.9455V48.2768H208.164V52.9455C208.164 53.5659 208.032 54.1144 207.771 54.5893C207.51 55.0643 207.146 55.4323 206.683 55.6952C206.219 55.9563 205.691 56.0877 205.1 56.0877C204.51 56.0877 203.963 55.951 203.507 55.6776L203.504 55.6811ZM204.76 47.2358L206.804 45.9004L207.298 46.6978L205.086 47.8544L204.76 47.2376V47.2358Z" fill="white" style="fill:white;fill-opacity:1;"/>
<path id="Vector_27" d="M215.021 48.807C215.565 49.1505 215.985 49.6131 216.283 50.1932C216.583 50.7733 216.732 51.4217 216.732 52.1403C216.732 52.9044 216.565 53.5843 216.232 54.1837C215.899 54.783 215.437 55.2492 214.846 55.5857C214.255 55.9222 213.581 56.0904 212.825 56.0904H211.872C211.67 56.0904 211.311 56.0676 210.794 56.0238L210.165 55.9677V48.2129L213.162 48.2234C213.858 48.269 214.476 48.4635 215.019 48.807H215.021ZM214.949 54.4518C215.526 53.9208 215.813 53.162 215.813 52.1736C215.813 51.2465 215.568 50.5087 215.079 49.9619C214.588 49.4151 213.91 49.1207 213.043 49.0751H211.09V55.1914C211.599 55.2282 212.06 55.2475 212.471 55.2475C213.549 55.2475 214.375 54.9828 214.951 54.4501L214.949 54.4518Z" fill="white" style="fill:white;fill-opacity:1;"/>
<path id="Vector_28" d="M218.42 48.2812H223.448V49.1347H219.317V51.4813H222.358V52.3348H219.317V55.1406H223.66V55.994H218.418V48.283L218.42 48.2812Z" fill="white" style="fill:white;fill-opacity:1;"/>
</g>
</g>
</svg>
